<?xml version="1.0" encoding="utf-8"?>
<!-- Generator: Adobe Illustrator 24.3.0, SVG Export Plug-In . SVG Version: 6.00 Build 0)  -->
<svg version="1.1" id="Layer_1" xmlns="http://www.w3.org/2000/svg" xmlns:xlink="http://www.w3.org/1999/xlink" x="0px" y="0px"
	 viewBox="0 0 8.17 8.89" style="enable-background:new 0 0 8.17 8.89;" xml:space="preserve">
<style type="text/css">
	.st0{fill:#7E7E78;}
	.st1{display:none;fill:#7E7E78;}
</style>
<g id="User_Icon">
	<g>
		<path class="st0" d="M0.68,8.49c-0.15,0-0.27-0.12-0.26-0.27C0.56,6.31,2.16,4.8,4.11,4.8s3.54,1.51,3.68,3.42
			C7.8,8.37,7.68,8.49,7.53,8.49H0.68z"/>
		<path class="st0" d="M5.98,2.25c0,1.03-0.84,1.87-1.87,1.87c-1.03,0-1.87-0.84-1.87-1.87c0-1.03,0.84-1.87,1.87-1.87
			C5.14,0.37,5.98,1.21,5.98,2.25z"/>
	</g>
</g>
<path id="Password_Icon" class="st1" d="M8.52,4.11H3.9C3.58,2.9,2.4,2.03,1.05,2.19C-0.14,2.33-1.1,3.3-1.23,4.49
	c-0.18,1.58,1.06,2.93,2.61,2.93c1.21,0,2.23-0.82,2.53-1.94h1.67V6.8h2.05V5.48h0.89V4.11z M1.59,6.04
	C0.73,6.18-0.01,5.44,0.13,4.58c0.09-0.52,0.51-0.94,1.03-1.03c0.86-0.14,1.59,0.59,1.45,1.45C2.53,5.53,2.11,5.95,1.59,6.04z"/>
</svg>
