<?xml version="1.0" encoding="utf-8"?>
<!-- Generator: Adobe Illustrator 24.3.0, SVG Export Plug-In . SVG Version: 6.00 Build 0)  -->
<svg version="1.1" id="Layer_1" xmlns="http://www.w3.org/2000/svg" xmlns:xlink="http://www.w3.org/1999/xlink" x="0px" y="0px"
	 viewBox="0 0 9.98 5.47" style="enable-background:new 0 0 9.98 5.47;" xml:space="preserve">
<style type="text/css">
	.st0{display:none;}
	.st1{display:inline;}
	.st2{fill:#7E7E78;}
</style>
<g id="User_Icon" class="st0">
	<g class="st1">
		<path class="st2" d="M2.04,6.41c-0.15,0-0.27-0.12-0.26-0.27c0.14-1.91,1.74-3.42,3.68-3.42s3.54,1.51,3.68,3.42
			C9.16,6.28,9.04,6.41,8.9,6.41H2.04z"/>
		<path class="st2" d="M7.34,0.16c0,1.03-0.84,1.87-1.87,1.87c-1.03,0-1.87-0.84-1.87-1.87c0-1.03,0.84-1.87,1.87-1.87
			C6.5-1.71,7.34-0.87,7.34,0.16z"/>
	</g>
</g>
<path id="Password_Icon" class="st2" d="M9.87,2.05H5.26C4.93,0.84,3.76-0.03,2.41,0.13c-1.19,0.14-2.15,1.11-2.28,2.3
	c-0.18,1.58,1.06,2.93,2.61,2.93c1.21,0,2.23-0.82,2.53-1.94h1.67v1.32h2.05V3.42h0.89V2.05z M2.94,3.97
	C2.08,4.12,1.35,3.38,1.49,2.52C1.58,2,2,1.58,2.52,1.49c0.86-0.14,1.59,0.59,1.45,1.45C3.88,3.47,3.46,3.89,2.94,3.97z"/>
</svg>
